<svg xmlns="http://www.w3.org/2000/svg" version="1.1" xmlns:xlink="http://www.w3.org/1999/xlink" xmlns:svgjs="http://svgjs.dev/svgjs" width="100%" height="100%" viewBox="0 0 1000 600"><rect width="1000" height="600" x="0" y="0" fill="#072c50"/><g><rect width="333.3333333333333" height="333.3333333333333" rx="13.333333333333334" ry="13.333333333333334" y="356.3332485083689" fill="grey" transform="matrix(0.3741270900712796,0,0,0.3741270900712796,0,104.33155599864332)" x="334.1110534667968"/><path d="M474.11139418031524 597.9999086466668L456.0851301481528 597.9999086466668L456.0851301481528 447.9999036373148L545.4703301089585 447.9999036373148L545.4703301089585 463.9071863014581L474.11139418031524 463.9071863014581L474.11139418031524 514.1956877819114L539.2327652369022 514.1956877819114L539.2327652369022 530.1029704460548L474.11139418031524 530.1029704460548L474.11139418031524 597.9999086466668Z " fill="#072c50" transform="matrix(0.3741270900712796,0,0,0.3741270900712796,0,104.33155599864332)"/><path d="M836.4795090843012 564.603347662437L836.4795090843012 471.9421291744574L835.6916479918197 471.9421291744574L826.4123951248137 490.3912097567358L800.0847036177189 538.2975411856889L773.7788971409708 490.3912097567358L764.477759243618 471.9421291744574L763.6898981511364 471.9421291744574L763.6898981511364 564.603347662437L750.7777302465762 564.603347662437L750.7777302465762 454.6091851398613L768.4170647060263 454.6091851398613L799.9315084052918 513.873847318758L800.7193694977735 513.873847318758L832.3870084094661 454.6091851398613L849.4135620192081 454.6091851398613L849.4135620192081 564.603347662437L836.4795090843012 564.603347662437ZM943.6286176618044 564.603347662437L936.5378678294695 564.603347662437Q929.4471179971348 564.603347662437 926.383213748595 560.8172374124558Q923.3193095000554 557.0311271624746 922.5314484075737 551.362904302676L922.5314484075737 551.362904302676L921.7435873150921 551.362904302676Q919.0517285824466 558.9351248026385 912.9020350550204 562.7212350526197Q906.774226557941 566.4854602722542 898.2609497530699 566.4854602722542L898.2609497530699 566.4854602722542Q885.3268968181629 566.4854602722542 878.170491894788 559.8761811075472Q870.9922019410665 553.26690194284 870.9922019410665 541.9085711928965L870.9922019410665 541.9085711928965Q870.9922019410665 530.4189302608725 879.4179386245506 524.2692367334464Q887.8655603383816 518.1195432060202 905.6580900102587 518.1195432060202L905.6580900102587 518.1195432060202L921.7435873150921 518.1195432060202L921.7435873150921 510.0877370687768Q921.7435873150921 501.42126505147877 917.0164207602023 496.8472937090159Q912.2892542053124 492.2733223665531 902.5066456403321 492.2733223665531L902.5066456403321 492.2733223665531Q895.1095053831433 492.2733223665531 890.1416034944397 495.5779619489066Q885.173701605736 498.90448656160686 881.8690620233824 504.41951420897834L881.8690620233824 504.41951420897834L874.29684152342 497.3287643766436Q877.6233661361202 490.6976001815898 884.867311180882 486.0579737480868Q892.1112562256437 481.3964622842371 903.1413115203867 481.3964622842371L903.1413115203867 481.3964622842371Q917.9574770651109 481.3964622842371 926.1424784147813 488.66229235934554Q934.3493647947984 495.9062374041073 934.3493647947984 508.81840530866754L934.3493647947984 508.81840530866754L934.3493647947984 553.573292367694L943.6286176618044 553.573292367694L943.6286176618044 564.603347662437ZM900.2962575753141 555.7836804327119L900.2962575753141 555.7836804327119Q905.023424130204 555.7836804327119 908.9627295926122 554.6675438850295Q912.9020350550204 553.573292367694 915.747089000093 551.5160995151031Q918.5921429451655 549.4807916928589 920.1678651301288 546.7889329602133Q921.7435873150921 544.1189592579144 921.7435873150921 540.9675148879878L921.7435873150921 540.9675148879878L921.7435873150921 527.5738763157999L905.023424130204 527.5738763157999Q894.1684490782346 527.5738763157999 889.200547189531 530.7253206857265Q884.2326453008274 533.8767650556531 884.2326453008274 539.8732633706522L884.2326453008274 539.8732633706522L884.2326453008274 543.1779029530057Q884.2326453008274 549.1525162376581 888.5658813094764 552.4790408503584Q892.8991173181254 555.7836804327119 900.2962575753141 555.7836804327119ZM1030.1401426223579 573.576210104589L1030.1401426223579 573.576210104589Q1030.1401426223579 586.1819875842951 1020.2918789663373 592.0909457779075Q1010.4436153103168 597.9999039715198 990.7470879982758 597.9999039715198L990.7470879982758 597.9999039715198Q971.6852265662894 597.9999039715198 963.3251449738453 592.8131517793491Q954.986948411748 587.6045145568315 954.986948411748 577.9969862346248L954.986948411748 577.9969862346248Q954.986948411748 571.3877070699178 958.4447832065285 567.6672519109767Q961.9245030316558 563.9686817823824 967.8991163163082 562.239764384992L967.8991163163082 562.239764384992L967.8991163163082 560.5108469876018Q960.6551712715465 557.0311271624746 960.6551712715465 549.1525162376581L960.6551712715465 549.1525162376581Q960.6551712715465 543.0247077405787 964.5944767339547 539.7857232492653Q968.5337821963628 536.546738757952 974.683475723789 534.9710165729887L974.683475723789 534.9710165729887L974.683475723789 534.3582357232807Q967.4395306790273 530.8785158981534 963.4126850952322 524.4224319458733Q959.3858395114371 517.9663479935932 959.3858395114371 509.45307118872216L959.3858395114371 509.45307118872216Q959.3858395114371 503.303377661296 961.5962275764551 498.1166254691252Q963.8066156414731 492.9079882466077 967.833461225268 489.20941811801333Q971.8384217787163 485.510847989419 977.4409895474747 483.45365513682805Q983.0216722858863 481.3964622842371 989.9592269057941 481.3964622842371L989.9592269057941 481.3964622842371Q998.6256989230922 481.3964622842371 1005.410058330573 484.5479066541636L1005.410058330573 484.5479066541636L1005.410058330573 483.14726471197406Q1005.410058330573 478.4200981570842 1007.6204463955909 475.33430887819776Q1009.808949430262 472.2704046296581 1014.8643914403526 472.2704046296581L1014.8643914403526 472.2704046296581L1026.9886982524313 472.2704046296581L1026.9886982524313 483.300459924401L1011.559751857999 483.300459924401L1011.559751857999 488.48721211657187Q1015.9586429576883 492.2733223665531 1018.40976635652 497.5476146801107Q1020.8390047250051 502.84379202401504 1020.8390047250051 509.45307118872216L1020.8390047250051 509.45307118872216Q1020.8390047250051 515.6027647161484 1018.6505016903338 520.7895169083191Q1016.4401136253159 525.9981541308366 1012.4132680415208 529.696724259431Q1008.4083074880725 533.3952943880254 1002.7181995979273 535.4524872406163Q997.0499767381289 537.5096800932072 990.1124221182212 537.5096800932072L990.1124221182212 537.5096800932072Q986.1731166558129 537.5096800932072 982.2338111934047 536.7218190007256L982.2338111934047 536.7218190007256Q978.1413105185695 537.8160705180612 974.8366709362159 539.9389184616923Q971.5320313538624 542.0617664053234 971.5320313538624 545.8478766553046L971.5320313538624 545.8478766553046Q971.5320313538624 549.4807916928589 974.9898661486429 550.7282384226214Q978.4695859737702 551.9975701827307 983.9846136211416 551.9975701827307L983.9846136211416 551.9975701827307L1001.3175576557378 551.9975701827307Q1016.4401136253159 551.9975701827307 1023.2901281238368 557.7533331639161Q1030.1401426223579 563.5090961451014 1030.1401426223579 573.576210104589ZM1018.3222262351331 574.5391514398444L1018.3222262351331 574.5391514398444Q1018.3222262351331 569.6369046421809 1014.6236561065388 566.7261956060681Q1010.9250859779444 563.8154865699553 1001.4707528681648 563.8154865699553L1001.4707528681648 563.8154865699553L974.3552002685883 563.8154865699553Q966.8048647989725 567.2733213647359 966.8048647989725 574.8455418646982L966.8048647989725 574.8455418646982Q966.8048647989725 580.2073742996428 970.809825352421 583.993484549624Q974.8366709362159 587.7577097692584 984.4441992584226 587.7577097692584L984.4441992584226 587.7577097692584L996.1089204332203 587.7577097692584Q1006.6575050603356 587.7577097692584 1012.5008081629077 584.4530701869049Q1018.3222262351331 581.1484306045514 1018.3222262351331 574.5391514398444ZM990.1124221182212 527.420681103373L990.1124221182212 527.420681103373Q998.1661132858112 527.420681103373 1002.8932798407011 523.5470307320048Q1007.6204463955909 519.6952653909834 1007.6204463955909 511.6634592537401L1007.6204463955909 511.6634592537401L1007.6204463955909 507.24268312370424Q1007.6204463955909 499.21087698646085 1002.8932798407011 495.3591116454395Q998.1661132858112 491.48546127407144 990.1124221182212 491.48546127407144L990.1124221182212 491.48546127407144Q982.0806159809778 491.48546127407144 977.3534494260879 495.3591116454395Q972.626282871198 499.21087698646085 972.626282871198 507.24268312370424L972.626282871198 507.24268312370424L972.626282871198 511.6634592537401Q972.626282871198 519.6952653909834 977.3534494260879 523.5470307320048Q982.0806159809778 527.420681103373 990.1124221182212 527.420681103373ZM1051.106001694508 464.2385984924147L1051.106001694508 464.2385984924147Q1047.0135010196727 464.2385984924147 1045.1970435008957 462.2689457612106Q1043.3805859821186 460.2992930300065 1043.3805859821186 457.14784866007994L1043.3805859821186 457.14784866007994L1043.3805859821186 455.090655807489Q1043.3805859821186 451.9392114375624 1045.1970435008957 449.9695587063583Q1047.0135010196727 447.9999059751542 1051.106001694508 447.9999059751542L1051.106001694508 447.9999059751542Q1055.1985023693433 447.9999059751542 1057.0149598881203 449.9695587063583Q1058.8314174068973 451.9392114375624 1058.8314174068973 455.090655807489L1058.8314174068973 455.090655807489L1058.8314174068973 457.14784866007994Q1058.8314174068973 460.2992930300065 1057.0149598881203 462.2689457612106Q1055.1985023693433 464.2385984924147 1051.106001694508 464.2385984924147ZM1044.8031129546548 564.603347662437L1044.8031129546548 483.300459924401L1057.4088904343612 483.300459924401L1057.4088904343612 564.603347662437L1044.8031129546548 564.603347662437ZM1108.773056658095 564.603347662437L1097.5898061509247 564.603347662437Q1090.958641955871 564.603347662437 1087.5883472824776 560.9047775338427Q1084.196167578737 557.2062074052483 1084.196167578737 551.5160995151031L1084.196167578737 551.5160995151031L1084.196167578737 447.9999059751542L1096.8019450584434 447.9999059751542L1096.8019450584434 553.573292367694L1108.773056658095 553.573292367694L1108.773056658095 564.603347662437ZM1150.8360849844757 564.603347662437L1139.652834477306 564.603347662437Q1133.0435553125985 564.603347662437 1129.6513756088584 560.9047775338427Q1126.2591959051178 557.2062074052483 1126.2591959051178 551.5160995151031L1126.2591959051178 551.5160995151031L1126.2591959051178 447.9999059751542L1138.8649733848242 447.9999059751542L1138.8649733848242 553.573292367694L1150.8360849844757 553.573292367694L1150.8360849844757 564.603347662437ZM1175.4348590941804 464.2385984924147L1175.4348590941804 464.2385984924147Q1171.3204733889984 464.2385984924147 1169.525900900568 462.2689457612106Q1167.709443381791 460.2992930300065 1167.709443381791 457.14784866007994L1167.709443381791 457.14784866007994L1167.709443381791 455.090655807489Q1167.709443381791 451.9392114375624 1169.525900900568 449.9695587063583Q1171.3204733889984 447.9999059751542 1175.4348590941804 447.9999059751542L1175.4348590941804 447.9999059751542Q1179.5273597690157 447.9999059751542 1181.3438172877927 449.9695587063583Q1183.138389776223 451.9392114375624 1183.138389776223 455.090655807489L1183.138389776223 455.090655807489L1183.138389776223 457.14784866007994Q1183.138389776223 460.2992930300065 1181.3438172877927 462.2689457612106Q1179.5273597690157 464.2385984924147 1175.4348590941804 464.2385984924147ZM1169.1319703543272 564.603347662437L1169.1319703543272 483.300459924401L1181.7377478340336 483.300459924401L1181.7377478340336 564.603347662437L1169.1319703543272 564.603347662437ZM1277.0689400243118 573.576210104589L1277.0689400243118 573.576210104589Q1277.0689400243118 586.1819875842951 1267.2206763682916 592.0909457779075Q1257.372412712271 597.9999039715198 1237.67588540023 597.9999039715198L1237.67588540023 597.9999039715198Q1218.5921389378968 597.9999039715198 1210.2539423757994 592.8131517793491Q1201.8938607833552 587.6045145568315 1201.8938607833552 577.9969862346248L1201.8938607833552 577.9969862346248Q1201.8938607833552 571.3877070699178 1205.3735806084824 567.6672519109767Q1208.8314154032632 563.9686817823824 1214.8279137182622 562.239764384992L1214.8279137182622 562.239764384992L1214.8279137182622 560.5108469876018Q1207.562083643154 557.0311271624746 1207.562083643154 549.1525162376581L1207.562083643154 549.1525162376581Q1207.562083643154 543.0247077405787 1211.5013891055619 539.7857232492653Q1215.4406945679702 536.546738757952 1221.5903880953965 534.9710165729887L1221.5903880953965 534.9710165729887L1221.5903880953965 534.3582357232807Q1214.3464430506347 530.8785158981534 1210.3195974668397 524.4224319458733Q1206.314636913391 517.9663479935932 1206.314636913391 509.45307118872216L1206.314636913391 509.45307118872216Q1206.314636913391 503.303377661296 1208.5250249784094 498.1166254691252Q1210.7135280130806 492.9079882466077 1214.7403735968755 489.20941811801333Q1218.7672191806705 485.510847989419 1224.3479019190822 483.45365513682805Q1229.9504696878403 481.3964622842371 1236.8880243077483 481.3964622842371L1236.8880243077483 481.3964622842371Q1245.5544963250463 481.3964622842371 1252.3169707021802 484.5479066541636L1252.3169707021802 484.5479066541636L1252.3169707021802 483.14726471197406Q1252.3169707021802 478.4200981570842 1254.5273587671982 475.33430887819776Q1256.737746832216 472.2704046296581 1261.77130381196 472.2704046296581L1261.77130381196 472.2704046296581L1273.9174956543852 472.2704046296581L1273.9174956543852 483.300459924401L1258.4666642296065 483.300459924401L1258.4666642296065 488.48721211657187Q1262.8874403596424 492.2733223665531 1265.3166787281275 497.5476146801107Q1267.7678021269594 502.84379202401504 1267.7678021269594 509.45307118872216L1267.7678021269594 509.45307118872216Q1267.7678021269594 515.6027647161484 1265.557414061941 520.7895169083191Q1263.3470259969235 525.9981541308366 1259.342065443475 529.696724259431Q1255.31521985968 533.3952943880254 1249.6469969998816 535.4524872406163Q1243.9787741400828 537.5096800932072 1237.0412195201752 537.5096800932072L1237.0412195201752 537.5096800932072Q1233.1019140577669 537.5096800932072 1229.162608595359 536.7218190007256L1229.162608595359 536.7218190007256Q1225.0701079205237 537.8160705180612 1221.7435833078234 539.9389184616923Q1218.43894372547 542.0617664053234 1218.43894372547 545.8478766553046L1218.43894372547 545.8478766553046Q1218.43894372547 549.4807916928589 1221.918663550597 550.7282384226214Q1225.3764983453775 551.9975701827307 1230.891525992749 551.9975701827307L1230.891525992749 551.9975701827307L1248.224470027345 551.9975701827307Q1263.3470259969235 551.9975701827307 1270.197040495444 557.7533331639161Q1277.0689400243118 563.5090961451014 1277.0689400243118 573.576210104589ZM1265.2510236370872 574.5391514398444L1265.2510236370872 574.5391514398444Q1265.2510236370872 569.6369046421809 1261.5305684781465 566.7261956060681Q1257.8319983495517 563.8154865699553 1248.3776652397723 563.8154865699553L1248.3776652397723 563.8154865699553L1221.2839976705422 563.8154865699553Q1213.7117771705798 567.2733213647359 1213.7117771705798 574.8455418646982L1213.7117771705798 574.8455418646982Q1213.7117771705798 580.2073742996428 1217.7386227543752 583.993484549624Q1221.7435833078234 587.7577097692584 1231.3729966603769 587.7577097692584L1231.3729966603769 587.7577097692584L1243.0158328048278 587.7577097692584Q1253.5863024622895 587.7577097692584 1259.4077205345152 584.4530701869049Q1265.2510236370872 581.1484306045514 1265.2510236370872 574.5391514398444ZM1237.0412195201752 527.420681103373L1237.0412195201752 527.420681103373Q1245.0730256574188 527.420681103373 1249.8001922123085 523.5470307320048Q1254.5273587671982 519.6952653909834 1254.5273587671982 511.6634592537401L1254.5273587671982 511.6634592537401L1254.5273587671982 507.24268312370424Q1254.5273587671982 499.21087698646085 1249.8001922123085 495.3591116454395Q1245.0730256574188 491.48546127407144 1237.0412195201752 491.48546127407144L1237.0412195201752 491.48546127407144Q1229.009413382932 491.48546127407144 1224.282246828042 495.3591116454395Q1219.5550802731523 499.21087698646085 1219.5550802731523 507.24268312370424L1219.5550802731523 507.24268312370424L1219.5550802731523 511.6634592537401Q1219.5550802731523 519.6952653909834 1224.282246828042 523.5470307320048Q1229.009413382932 527.420681103373 1237.0412195201752 527.420681103373ZM1357.4307714574393 564.603347662437L1350.3400216251043 564.603347662437Q1343.2492717927698 564.603347662437 1340.163482513883 560.8172374124558Q1337.0995782653436 557.0311271624746 1336.3117171728618 551.362904302676L1336.3117171728618 551.362904302676L1335.52385608038 551.362904302676Q1332.8319973477346 558.9351248026385 1326.704188850655 562.7212350526197Q1320.5544953232293 566.4854602722542 1312.0412185183582 566.4854602722542L1312.0412185183582 566.4854602722542Q1299.129050613798 566.4854602722542 1291.950760660076 559.8761811075472Q1284.7724707063544 553.26690194284 1284.7724707063544 541.9085711928965L1284.7724707063544 541.9085711928965Q1284.7724707063544 530.4189302608725 1293.2200924201857 524.2692367334464Q1301.6458291036697 518.1195432060202 1319.438358775547 518.1195432060202L1319.438358775547 518.1195432060202L1335.52385608038 518.1195432060202L1335.52385608038 510.0877370687768Q1335.52385608038 501.42126505147877 1330.7966895254904 496.8472937090159Q1326.0695229706007 492.2733223665531 1316.2869144056203 492.2733223665531L1316.2869144056203 492.2733223665531Q1308.8897741484316 492.2733223665531 1303.921872259728 495.5779619489066Q1298.9539703710243 498.90448656160686 1295.6493307886703 504.41951420897834L1295.6493307886703 504.41951420897834L1288.0989953190547 497.3287643766436Q1291.4036349014082 490.6976001815898 1298.64757994617 486.0579737480868Q1305.8915249909319 481.3964622842371 1316.9215802856747 481.3964622842371L1316.9215802856747 481.3964622842371Q1331.737745830399 481.3964622842371 1339.9227471800696 488.66229235934554Q1348.1296335600864 495.9062374041073 1348.1296335600864 508.81840530866754L1348.1296335600864 508.81840530866754L1348.1296335600864 553.573292367694L1357.4307714574393 553.573292367694L1357.4307714574393 564.603347662437ZM1314.0984113709492 555.7836804327119L1314.0984113709492 555.7836804327119Q1318.8255779258388 555.7836804327119 1322.7648833882472 554.6675438850295Q1326.704188850655 553.573292367694 1329.527357765381 551.5160995151031Q1332.372411710454 549.4807916928589 1333.948133895417 546.7889329602133Q1335.52385608038 544.1189592579144 1335.52385608038 540.9675148879878L1335.52385608038 540.9675148879878L1335.52385608038 527.5738763157999L1318.8255779258388 527.5738763157999Q1307.948717843523 527.5738763157999 1302.9808159548193 530.7253206857265Q1298.0129140661156 533.8767650556531 1298.0129140661156 539.8732633706522L1298.0129140661156 539.8732633706522L1298.0129140661156 543.1779029530057Q1298.0129140661156 549.1525162376581 1302.3461500747644 552.4790408503584Q1306.6793860834136 555.7836804327119 1314.0984113709492 555.7836804327119ZM1387.9822738214493 564.603347662437L1375.3764963417434 564.603347662437L1375.3764963417434 483.300459924401L1387.9822738214493 483.300459924401L1387.9822738214493 496.54090328416197L1388.6169397015037 496.54090328416197Q1391.6151888590034 489.60334866425416 1397.0426763849882 485.510847989419Q1402.4920489413198 481.3964622842371 1411.6181065958986 481.3964622842371L1411.6181065958986 481.3964622842371Q1424.223884075605 481.3964622842371 1431.5553692417534 489.5158085428673Q1438.8868544079019 497.63515480149755 1438.8868544079019 512.4513203462218L1438.8868544079019 512.4513203462218L1438.8868544079019 564.603347662437L1426.281076928196 564.603347662437L1426.281076928196 514.6617084112397Q1426.281076928196 492.75479303418075 1407.8538813762639 492.75479303418075L1407.8538813762639 492.75479303418075Q1404.0677711262829 492.75479303418075 1400.5223962101154 493.69584933908936Q1396.9770212939484 494.636905643998 1394.1319673488756 496.54090328416197Q1391.3087984341496 498.4230158939792 1389.6455361277995 501.33372493009193Q1387.9822738214493 504.24443396620467 1387.9822738214493 508.18373942861285L1387.9822738214493 508.18373942861285L1387.9822738214493 564.603347662437ZM1544.4602408004416 566.4854602722542L1544.4602408004416 566.4854602722542Q1533.736575930553 566.4854602722542 1525.1576440346416 562.7868901436599Q1516.5787121387302 559.0883200150655 1510.4946737023442 551.9100300613438Q1504.432520296305 544.753625137969 1501.1278807139515 534.1175003894668Q1497.823241131598 523.4813756409646 1497.823241131598 509.6062664011491L1497.823241131598 509.6062664011491Q1497.823241131598 495.7530421916803 1501.1278807139515 485.1825725342183Q1504.432520296305 474.633987907103 1510.4946737023442 467.39004286234126Q1516.5787121387302 460.1242127872328 1525.1576440346416 456.4256426586384Q1533.736575930553 452.72707253004404 1544.4602408004416 452.72707253004404L1544.4602408004416 452.72707253004404Q1555.008825427557 452.72707253004404 1563.675297444855 456.4256426586384Q1572.3417694621535 460.1242127872328 1578.425807898539 467.39004286234126Q1584.4879613045782 474.633987907103 1587.7926008869322 485.1825725342183Q1591.0972404692857 495.7530421916803 1591.0972404692857 509.6062664011491L1591.0972404692857 509.6062664011491Q1591.0972404692857 523.4813756409646 1587.7926008869322 534.1175003894668Q1584.4879613045782 544.753625137969 1578.425807898539 551.9100300613438Q1572.3417694621535 559.0883200150655 1563.675297444855 562.7868901436599Q1555.008825427557 566.4854602722542 1544.4602408004416 566.4854602722542ZM1544.4602408004416 554.6675438850295L1544.4602408004416 554.6675438850295Q1551.5509906327766 554.6675438850295 1557.547488947776 552.1507653951578Q1563.522102232428 549.6339869052858 1567.8553382410773 544.906820350396Q1572.1885742497261 540.179653795506 1574.552157527171 533.570374630799Q1576.9157408046162 526.9392104357453 1576.9157408046162 518.7542090860749L1576.9157408046162 518.7542090860749L1576.9157408046162 500.48020874657016Q1576.9157408046162 492.2733223665531 1574.552157527171 485.66404320184597Q1572.1885742497261 479.03287900679214 1567.8553382410773 474.3057124519023Q1563.522102232428 469.5785458970125 1557.547488947776 467.06176740714056Q1551.5509906327766 464.54498891726865 1544.4602408004416 464.54498891726865L1544.4602408004416 464.54498891726865Q1537.3694909681071 464.54498891726865 1531.3729926531078 467.06176740714056Q1525.3983793684552 469.5785458970125 1521.0651433598064 474.3057124519023Q1516.7319073511576 479.03287900679214 1514.3683240737123 485.66404320184597Q1512.0047407962675 492.2733223665531 1512.0047407962675 500.48020874657016L1512.0047407962675 500.48020874657016L1512.0047407962675 518.7542090860749Q1512.0047407962675 526.9392104357453 1514.3683240737123 533.570374630799Q1516.7319073511576 540.179653795506 1521.0651433598064 544.906820350396Q1525.3983793684552 549.6339869052858 1531.3729926531078 552.1507653951578Q1537.3694909681071 554.6675438850295 1544.4602408004416 554.6675438850295ZM1644.0371288779825 538.6039316105429L1663.7336561900233 483.300459924401L1676.1862384573028 483.300459924401L1639.7914329907203 583.5120138819963Q1638.3689060181837 587.1449289195506 1636.9463790456475 589.5741672880357Q1635.5457371034581 592.0252906868674 1633.488544250867 593.4478176594038Q1631.431351398276 594.8484596015932 1628.3674471497366 595.483125481648Q1625.303542901197 596.1177913617026 1620.8827667711607 596.1177913617026L1620.8827667711607 596.1177913617026L1614.4266828188806 596.1177913617026L1614.4266828188806 585.0877360669596L1627.185655511014 585.0877360669596L1633.3353490384402 567.7547920323635L1602.9151568565103 483.300459924401L1615.5209343362162 483.300459924401L1635.0642664358306 538.6039316105429L1638.8503766858116 551.8443749703038L1639.6382377782934 551.8443749703038L1644.0371288779825 538.6039316105429ZM1716.0607637490125 566.4854602722542L1716.0607637490125 566.4854602722542Q1704.7024329990686 566.4854602722542 1697.0645574080663 562.1522242636051Q1689.4266818170636 557.8189882549561 1683.9116541696922 550.5750432101945L1683.9116541696922 550.5750432101945L1692.884516611844 543.3310981654326Q1697.611683166734 549.3275964804318 1703.4549862693061 552.5446959413985Q1709.2764043415318 555.7836804327119 1717.0018200539212 555.7836804327119L1717.0018200539212 555.7836804327119Q1725.0336261911643 555.7836804327119 1729.5200574122405 552.3039606075847Q1734.0283736636634 548.8461258128042 1734.0283736636634 542.5432370729511L1734.0283736636634 542.5432370729511Q1734.0283736636634 537.8160705180612 1730.9425843847766 534.4238908143209Q1727.878680136237 531.0317111105803 1719.8468739989935 529.7842643808178L1719.8468739989935 529.7842643808178L1713.3689050163666 528.8432080759092Q1707.7006821565683 528.0553469834276 1702.9735156016786 526.3920846770775Q1698.2463490467885 524.7288223707274 1694.7009741306215 521.9713085470415Q1691.155599214454 519.2137947233558 1689.1859464832496 515.1212940485207Q1687.2162937520457 511.02879337368546 1687.2162937520457 505.36057051388696L1687.2162937520457 505.36057051388696Q1687.2162937520457 499.3640721988878 1689.4266818170636 494.87764097781184Q1691.6370698820815 490.3912097567358 1695.4888352231028 487.39296059923623Q1699.3624855944709 484.39471144173666 1704.7024329990686 482.9065293781602Q1710.0642654340131 481.3964622842371 1716.2139589614394 481.3964622842371L1716.2139589614394 481.3964622842371Q1726.1497627388467 481.3964622842371 1732.8465820249407 484.8761821093643Q1739.5434013110348 488.33401690414485 1744.5769582907783 494.483710431571L1744.5769582907783 494.483710431571L1736.2168766983345 502.05593093153345Q1733.5469029960354 498.26982068155223 1728.3382657735178 495.18403140266577Q1723.151513581347 492.12012715412607 1715.2729026565307 492.12012715412607L1715.2729026565307 492.12012715412607Q1707.3942917317145 492.12012715412607 1703.3674461479195 495.51230685786646Q1699.3624855944709 498.90448656160686 1699.3624855944709 504.72590463383233L1699.3624855944709 504.72590463383233Q1699.3624855944709 510.7224029488315 1703.3674461479195 513.3923766511303Q1707.3942917317145 516.0623503534293 1714.9446272013301 517.3316821135386L1714.9446272013301 517.3316821135386L1721.2475159411833 518.2727384184473Q1734.8162347561447 520.329931271038 1740.4844576159435 526.0856942522234Q1746.1526804757418 531.8195722030621 1746.1526804757418 541.1207101004147L1746.1526804757418 541.1207101004147Q1746.1526804757418 552.9386264876393 1738.1208743384982 559.7229858951202Q1730.089068201255 566.4854602722542 1716.0607637490125 566.4854602722542ZM1800.9965665246023 564.603347662437L1785.2393446749697 564.603347662437Q1778.608180479916 564.603347662437 1775.2160007761754 560.9047775338427Q1771.8457061027816 557.2062074052483 1771.8457061027816 551.2097090902491L1771.8457061027816 551.2097090902491L1771.8457061027816 494.330515219144L1758.452067530594 494.330515219144L1758.452067530594 483.300459924401L1766.0024030002096 483.300459924401Q1770.0949036750449 483.300459924401 1771.604970768968 481.63719761805095Q1773.093152832544 479.9958203420475 1773.093152832544 475.8814346368656L1773.093152832544 475.8814346368656L1773.093152832544 460.75887866728743L1784.451483582488 460.75887866728743L1784.451483582488 483.300459924401L1802.2440132543652 483.300459924401L1802.2440132543652 494.330515219144L1784.451483582488 494.330515219144L1784.451483582488 553.573292367694L1800.9965665246023 553.573292367694L1800.9965665246023 564.603347662437ZM1852.5139279607629 566.4854602722542L1852.5139279607629 566.4854602722542Q1844.1538463683191 566.4854602722542 1837.457027082225 563.5090961451014Q1830.760207796131 560.5108469876018 1825.967386150201 554.9082792188435Q1821.1526794739243 549.3275964804318 1818.548360862666 541.5146406466556Q1815.9659272817535 533.723569843226 1815.9659272817535 523.9409612782456L1815.9659272817535 523.9409612782456Q1815.9659272817535 514.3334329560389 1818.548360862666 506.4548220312226Q1821.1526794739243 498.57621110640616 1825.967386150201 492.99552836799455Q1830.760207796131 487.39296059923623 1837.457027082225 484.39471144173666Q1844.1538463683191 481.3964622842371 1852.5139279607629 481.3964622842371L1852.5139279607629 481.3964622842371Q1860.6989293104334 481.3964622842371 1867.1768982930603 484.39471144173666Q1873.6329822453404 487.39296059923623 1878.2069535878031 492.6672529127939Q1882.7590398999196 497.94154522635154 1885.210163298751 505.20737530146Q1887.661286697583 512.4513203462218 1887.661286697583 521.1177923635198L1887.661286697583 521.1177923635198L1887.661286697583 527.0924056481722L1829.184485611168 527.0924056481722L1829.184485611168 530.8785158981534Q1829.184485611168 536.087153120671 1830.847747917518 540.5735843417469Q1832.5110102238682 545.060015562823 1835.5749144724077 548.3646551451766Q1838.6388187209473 551.6911797578769 1843.1471349723702 553.573292367694Q1847.6335661934463 555.4554049775113 1853.3017890532446 555.4554049775113L1853.3017890532446 555.4554049775113Q1861.027204765634 555.4554049775113 1866.7829677468194 551.8443749703038Q1872.516845697658 548.2114599327494 1875.6682900675846 541.4489855556154L1875.6682900675846 541.4489855556154L1884.6630375400832 547.9050695078956Q1880.7237320776753 556.2432660699928 1872.3636504852311 561.3643631711236Q1864.0254539231337 566.4854602722542 1852.5139279607629 566.4854602722542ZM1852.5139279607629 491.9669319416991L1852.5139279607629 491.9669319416991Q1847.3052907382457 491.9669319416991 1843.0595948509836 493.7833894604762Q1838.8138989637214 495.5779619489066 1835.7281096848346 498.90448656160686Q1832.664205436295 502.2091261439604 1830.9352880389047 506.69555736503645Q1829.184485611168 511.1819885861124 1829.184485611168 516.5438210210569L1829.184485611168 516.5438210210569L1829.184485611168 517.6380725383925L1874.0925678826216 517.6380725383925L1874.0925678826216 515.9091551410022Q1874.0925678826216 505.0322950586863 1868.1836096890088 498.51055601536603Q1862.274651495397 491.9669319416991 1852.5139279607629 491.9669319416991ZM1921.0578430066657 564.603347662437L1908.4520655269594 564.603347662437L1908.4520655269594 483.300459924401L1921.0578430066657 483.300459924401L1921.0578430066657 498.26982068155223L1921.8457040991475 498.26982068155223Q1924.056092164165 492.42651757898005 1929.7243150239638 487.8744312668639Q1935.3925378837625 483.300459924401 1945.3283416611694 483.300459924401L1945.3283416611694 483.300459924401L1950.2087034284864 483.300459924401L1950.2087034284864 495.9062374041073L1942.8115631712976 495.9062374041073Q1932.5693689690365 495.9062374041073 1926.8136059878511 499.75800274512864Q1921.0578430066657 503.6316531164967 1921.0578430066657 509.45307118872216L1921.0578430066657 509.45307118872216L1921.0578430066657 564.603347662437ZM2017.9647573819075 564.603347662437L2004.7243140221467 564.603347662437L2004.7243140221467 454.6091851398613L2070.26997991055 454.6091851398613L2070.26997991055 466.2739063146589L2017.9647573819075 466.2739063146589L2017.9647573819075 503.15018244886903L2065.7178935984334 503.15018244886903L2065.7178935984334 514.8149036236666L2017.9647573819075 514.8149036236666L2017.9647573819075 564.603347662437ZM2151.4196724361586 564.603347662437L2144.328922603824 564.603347662437Q2137.238172771489 564.603347662437 2134.1742685229497 560.8172374124558Q2131.1103642744097 557.0311271624746 2130.322503181928 551.362904302676L2130.322503181928 551.362904302676L2129.5346420894466 551.362904302676Q2126.8427833568007 558.9351248026385 2120.6930898293745 562.7212350526197Q2114.5652813322954 566.4854602722542 2106.0520045274243 566.4854602722542L2106.0520045274243 566.4854602722542Q2093.1179515925173 566.4854602722542 2085.9615466691425 559.8761811075472Q2078.783256715421 553.26690194284 2078.783256715421 541.9085711928965L2078.783256715421 541.9085711928965Q2078.783256715421 530.4189302608725 2087.208993398905 524.2692367334464Q2095.656615112736 518.1195432060202 2113.449144784613 518.1195432060202L2113.449144784613 518.1195432060202L2129.5346420894466 518.1195432060202L2129.5346420894466 510.0877370687768Q2129.5346420894466 501.42126505147877 2124.8074755345565 496.8472937090159Q2120.080308979667 492.2733223665531 2110.2977004146865 492.2733223665531L2110.2977004146865 492.2733223665531Q2102.9005601574977 492.2733223665531 2097.932658268794 495.5779619489066Q2092.9647563800904 498.90448656160686 2089.660116797737 504.41951420897834L2089.660116797737 504.41951420897834L2082.0878962977745 497.3287643766436Q2085.4144209104747 490.6976001815898 2092.6583659552366 486.0579737480868Q2099.902310999998 481.3964622842371 2110.9323662947413 481.3964622842371L2110.9323662947413 481.3964622842371Q2125.748531839465 481.3964622842371 2133.9335331891357 488.66229235934554Q2142.140419569153 495.9062374041073 2142.140419569153 508.81840530866754L2142.140419569153 508.81840530866754L2142.140419569153 553.573292367694L2151.4196724361586 553.573292367694L2151.4196724361586 564.603347662437ZM2108.0873123496685 555.7836804327119L2108.0873123496685 555.7836804327119Q2112.814478904558 555.7836804327119 2116.7537843669666 554.6675438850295Q2120.6930898293745 553.573292367694 2123.5381437744472 551.5160995151031Q2126.38319771952 549.4807916928589 2127.958919904483 546.7889329602133Q2129.5346420894466 544.1189592579144 2129.5346420894466 540.9675148879878L2129.5346420894466 540.9675148879878L2129.5346420894466 527.5738763157999L2112.814478904558 527.5738763157999Q2101.959503852589 527.5738763157999 2096.9916019638854 530.7253206857265Q2092.0237000751818 533.8767650556531 2092.0237000751818 539.8732633706522L2092.0237000751818 539.8732633706522L2092.0237000751818 543.1779029530057Q2092.0237000751818 549.1525162376581 2096.3569360838305 552.4790408503584Q2100.6901720924798 555.7836804327119 2108.0873123496685 555.7836804327119ZM2181.9930598305154 564.603347662437L2169.3872823508095 564.603347662437L2169.3872823508095 483.300459924401L2181.9930598305154 483.300459924401L2181.9930598305154 498.26982068155223L2182.780920922997 498.26982068155223Q2184.991308988015 492.42651757898005 2190.6595318478135 487.8744312668639Q2196.3277547076123 483.300459924401 2206.2635584850195 483.300459924401L2206.2635584850195 483.300459924401L2211.143920252336 483.300459924401L2211.143920252336 495.9062374041073L2203.746779995148 495.9062374041073Q2193.5045857928862 495.9062374041073 2187.748822811701 499.75800274512864Q2181.9930598305154 503.6316531164967 2181.9930598305154 509.45307118872216L2181.9930598305154 509.45307118872216L2181.9930598305154 564.603347662437ZM2239.835195036876 564.603347662437L2227.22941755717 564.603347662437L2227.22941755717 483.300459924401L2239.835195036876 483.300459924401L2239.835195036876 496.54090328416197L2240.447975886584 496.54090328416197Q2241.8705028591203 493.3894589142354 2243.6869603778973 490.63194509054966Q2245.503417896675 487.8744312668639 2248.107736507933 485.81723841427294Q2250.690170088845 483.76004556168203 2254.169889913973 482.57825392295956Q2257.6277247087532 481.3964622842371 2262.354891263643 481.3964622842371L2262.354891263643 481.3964622842371Q2270.3866974008865 481.3964622842371 2277.171056808367 485.27011265560515Q2283.955416215848 489.1218779966265 2287.2600557982014 497.94154522635154L2287.2600557982014 497.94154522635154L2287.566446223055 497.94154522635154Q2289.776834288073 491.3322660616444 2295.838987694113 486.3643641729408Q2301.901141100152 481.3964622842371 2312.3184155451872 481.3964622842371L2312.3184155451872 481.3964622842371Q2324.7491127821195 481.3964622842371 2331.774207523414 489.5158085428673Q2338.777417234362 497.63515480149755 2338.777417234362 512.4513203462218L2338.777417234362 512.4513203462218L2338.777417234362 564.603347662437L2326.1716397546556 564.603347662437L2326.1716397546556 514.6617084112397Q2326.1716397546556 503.7848483289237 2321.925943867394 498.26982068155223Q2317.658362949785 492.75479303418075 2308.379110082779 492.75479303418075L2308.379110082779 492.75479303418075Q2304.5929998327974 492.75479303418075 2301.2008201290573 493.69584933908936Q2297.808640425317 494.636905643998 2295.1386667230176 496.54090328416197Q2292.4468079903722 498.4230158939792 2290.871085805409 501.33372493009193Q2289.2953636204456 504.24443396620467 2289.2953636204456 508.18373942861285L2289.2953636204456 508.18373942861285L2289.2953636204456 564.603347662437L2276.6895861407397 564.603347662437L2276.6895861407397 514.6617084112397Q2276.6895861407397 503.7848483289237 2272.443890253477 498.26982068155223Q2268.1981943662154 492.75479303418075 2259.203446893717 492.75479303418075L2259.203446893717 492.75479303418075Q2255.4173366437353 492.75479303418075 2251.959501848955 493.69584933908936Q2248.501667054174 494.636905643998 2245.8098083215286 496.54090328416197Q2243.1398346192295 498.4230158939792 2241.4765723128794 501.33372493009193Q2239.835195036876 504.24443396620467 2239.835195036876 508.18373942861285L2239.835195036876 508.18373942861285L2239.835195036876 564.603347662437Z " fill="grey" transform="matrix(0.3741270900712796,0,0,0.3741270900712796,0,104.33155599864332)"/></g></svg>